<?xml version="1.0" encoding="utf-8"?>
<!-- Generator: Adobe Illustrator 27.5.0, SVG Export Plug-In . SVG Version: 6.00 Build 0)  -->
<svg version="1.1" id="Capa_1" xmlns="http://www.w3.org/2000/svg" xmlns:xlink="http://www.w3.org/1999/xlink" x="0px" y="0px"
	 viewBox="0 0 2122 2122" style="enable-background:new 0 0 2122 2122;" xml:space="preserve">
<g>
	<path style="fill:none;" d="M804.512,764.357l0.07,0.056c-0.023-0.203-0.048-0.443-0.071-0.649c0,0.032,0.001,0.063,0.001,0.096
		V764.357z"/>
	<path style="fill:#EFCBBC;" d="M864.92,1020.037l3.025,123.419c30.337,9.769,61.308,17.272,92.659,22.568
		C929.97,1116.832,897.831,1068.353,864.92,1020.037z"/>
	<path style="fill:#CA8080;" d="M864.5,1002.886l0.42,17.151c32.91,48.316,65.049,96.795,95.684,145.987
		c0.187,0.031,0.371,0.072,0.558,0.104c38.546,6.48,77.647,9.642,116.806,9.642c58.791,0,117.717-7.135,175.096-20.867
		l3.725-152.017l0.624-0.609h0.044l0.906-36.948c-44.721,49.425-133.888,129.257-133.888,129.257s-98.811,13.725-122.142,0
		c-19.016-11.186-99.113-74.343-139.232-123.327l0.76,31.018c0.001,0,0.015,0,0.015,0L864.5,1002.886z"/>
	<path style="fill:#F0C9BD;" d="M789.063,743.666c-6.163-9.62-11.739-19.644-16.848-29.851c-3.28-6.552-6.164-13.14-8.87-19.755
		c-0.345-0.032-0.689-0.067-1.015-0.067l-0.965,0.063c-12.644,1.732-26.89,21.116-27.445,58.963c3.69-5.54,9.228-9.054,17.699-9.054
		c16.753,0,33.483,6.292,48.48,17.053l-0.032-0.182c-0.297-0.575-0.576-1.15-0.898-1.725
		C796.008,753.473,791.779,747.899,789.063,743.666z"/>
	<path style="fill:#CA8080;" d="M804.583,764.413l-0.07-0.056v0.28c0,0.799-0.003,1.596-0.003,2.39c0,1.301,0.007,2.597,0.048,3.891
		l-0.17,0.445l-0.434,0.198l-0.446-0.168l-0.198-0.436c-0.09-3.085-1.417-6.583-3.245-10.121l0.032,0.182
		c-14.997-10.76-31.727-17.053-48.48-17.053c-8.47,0-14.008,3.513-17.699,9.054c-0.005,0.332-0.028,0.639-0.031,0.973l-0.424,0.585
		l-0.188-0.056c-0.074,13.007,1.408,28.067,5.072,45.281c14.032,65.881,59.603,113.61,94.205,110.253
		c-14.97-52.044-25.094-122.879-25.094-122.879S806.246,779.093,804.583,764.413z"/>
	<path style="fill:#F0C9BD;" d="M1377.99,716.745c-5.439-14.136-13.666-21.615-21.298-22.69l-1.076-0.073
		c-0.806,0-1.667,0.144-2.551,0.354c-10.944,20.721-24.824,34.497-34.794,42.462c-0.172,0.138-0.331,0.257-0.501,0.392
		c-0.774,6.476-1.612,12.68-2.536,18.422c-0.39,2.414-0.823,5.274-1.294,8.434c15.993-12.604,34.234-20.08,52.502-20.08
		c8.967,0,14.675,3.908,18.353,10.022c-0.134-15.201-2.47-27.453-6.028-36.92l-0.393,0.046L1377.99,716.745z"/>
	<path style="fill:#CA8080;" d="M1366.441,743.965c-18.268,0-36.509,7.477-52.502,20.08
		c-4.948,33.262-14.231,104.524-24.338,146.168c34.015-0.558,76.626-47.101,90.109-110.412c3.713-17.442,5.201-32.692,5.084-45.815
		C1381.115,747.872,1375.408,743.965,1366.441,743.965z"/>
	<path style="fill:#EFCBBC;" d="M1002.334,1094.585c23.33,13.725,122.142,0,122.142,0s89.166-79.831,133.888-129.257
		c12.122-13.398,21.006-24.579,23.934-31.31c2.448-5.635,4.899-13.895,7.303-23.805c10.107-41.644,19.391-112.906,24.338-146.168
		c0.47-3.16,0.904-6.019,1.294-8.434c0.924-5.742,1.762-11.946,2.536-18.422c-0.539,0.426-1.076,0.85-1.591,1.243
		c-0.174,0.133-0.322,0.236-0.493,0.365c-3.488,26.14-5.774,41.681-5.215,32.939c0.376-5.861-1.072-15.439-3.59-26.953
		c-0.846,0.496-1.389,0.79-1.394,0.795l-0.716-0.093l-0.151-0.706l1.155-2.672l0.33-0.762c-1.44-6.281-3.157-13.042-5.068-20.087
		l-2.175,0.924l-0.741-0.197l0.008-0.765c0.629-0.792,1.164-1.678,1.793-2.562c0.103-0.145,0.182-0.302,0.283-0.448
		c-9.756-35.365-23.648-76.078-29.074-91.674c-0.115-0.021-0.235-0.05-0.35-0.071c-13.228-2.412-25.526-3.253-36.762-3.289
		c26.026,15.89,38.228,41.111,38.228,41.111c-58.594-9.342-159.225,44.582-155.827,10.19c0.581-5.885,2.005-11.383,3.91-16.496
		l-0.468,0.067l-0.334-0.641c0.025-0.053,3.808-28.183,22.292-44.122c16.775-14.383,48.166-14.997,54.185-15.018
		c0.65,0,1.003,0.008,1.008,0.008h0.019c19.13,1.071,36.764,5.068,52.062,10.004c-72.807-46.974-145.811-137.649-146.067-137.965
		c-1.13-1.405-18.533,0.962-20.543,1.12c-9.803,0.775-21.009,3.34-27.489,11.564c-4.901,6.224-5.922,14.572-6.631,22.463
		c-5.837,64.979-2.741,130.728,8.938,194.915c0.531,0,1.055-0.015,1.586-0.015c32.253,0,62.998,2.341,91.086,6.555
		c2.124-1.323,4.324-2.614,6.675-3.82c14.84-7.613,65.983-20.702,110.731-14.746c8.952,1.191,15.929,8.329,16.648,17.333
		c0,0-2.896-0.661-7.971-1.513c-2.356,6.553-7.508,19.93-11.722,24.219c-0.31,0.68-2.405,4.97-7.347,10.198
		c26.253,14.037,41.628,31.001,41.628,49.281c0,41.493-79.145,76.217-185.321,85.216l-52.635,15.598l-51.23-15.181
		c-108.665-8.322-190.27-43.493-190.27-85.632c0-18.88,16.431-36.346,44.283-50.643c-4.049-4.604-5.817-8.216-6.098-8.836
		c-4.214-4.29-9.366-17.666-11.722-24.219c-5.074,0.853-7.971,1.513-7.971,1.513c0.719-9.004,7.696-16.141,16.648-17.333
		c44.748-5.956,95.89,7.133,110.73,14.746c2.08,1.067,4.039,2.202,5.942,3.364c19.135-2.755,39.457-4.643,60.633-5.52
		c-10.784-7.218-21.016-15.235-30.65-23.932c-18.081,34.79-74.371-10.27-126.183-32.887c-9.549,10.258-20.239,19.657-30.37,29.369
		c-15.225,14.594-29.004,30.69-36.151,50.811c-0.509,1.435-0.955,2.873-1.375,4.313c-0.242,1.791-0.574,3.57-0.779,5.365
		c-0.904,7.956-1.447,15.951-1.605,23.959c-0.013,0.528-0.015,1.06-0.015,1.591c0,1.403,0.028,2.814,0.033,4.233
		c0.023,0.206,0.048,0.447,0.071,0.649c1.664,14.679,2.877,22.762,2.877,22.762s10.124,70.835,25.094,122.879
		c3.31,11.515,6.857,22.124,10.587,30.826c3.805,8.88,10.863,19.267,19.961,30.378
		C903.221,1020.242,983.318,1083.4,1002.334,1094.585z M1033.021,991.059c0,0,23.079-13.608,52.227-3.396
		C1103.079,993.909,1046.733,1016.542,1033.021,991.059z M956.41,937.828c3.033,1.501,52.372-9.929,105.127-9.929
		c30.042,0,95.194,6.943,99.065,6.538c3.871-0.404,8.295-2.2,8.295-2.2s-0.361,7.657-3.296,9.34
		c-2.935,1.683-50.326,25.756-110.75,28.275c-61.143,2.548-96.012-22.293-100.631-25.954c-2.977-2.363-5.337-8.068-5.337-8.068
		S953.376,936.327,956.41,937.828z"/>
	<path style="fill:#F1BFB5;" d="M1031.605,700.942c-21.176,0.877-41.498,2.765-60.633,5.52c21.133,12.887,31.51,30.551,31.51,30.551
		l-3.934,1.936c1.569,1.888,2.49,3.038,2.49,3.038s-17.174,7.8-41.116,11.868c-4.702,1.484-18.492,5.16-39.856,5.116
		c-31.88-0.066-48.657-12.689-56.623-21.744c-27.851,14.297-44.283,31.764-44.283,50.643c0,42.139,81.605,77.31,190.27,85.632
		l-8.957-2.653c0,0,61.778-26.112,120.375,0l-7.552,2.237c106.176-8.999,185.321-43.722,185.321-85.216
		c0-18.28-15.374-35.245-41.628-49.281c-8.422,8.906-25.074,20.319-55.374,20.382c-21.364,0.044-35.155-3.632-39.856-5.116
		c-23.941-4.068-41.116-11.868-41.116-11.868s0.921-1.149,2.49-3.038l-3.934-1.936c0,0,10.141-17.252,30.777-30.095
		c-28.088-4.214-58.833-6.555-91.086-6.555c-0.531,0-1.055,0.015-1.586,0.015c1.062,5.842,2.09,11.691,3.296,17.503
		C1050.578,712.874,1040.913,707.173,1031.605,700.942z"/>
	<path style="fill:#CA8080;" d="M948.157,528.284l3.875,72.802c7.893,1.688,16.124,4.455,23.003,8.821
		C963.507,586.399,953.611,559.044,948.157,528.284z"/>
	<path style="fill:#CA8080;" d="M891.843,532.912c-1.405,10.056-6.649,43.739-17.611,74.825c13.888-4.361,29.692-7.827,46.685-9.122
		C909.116,578.115,897.391,554.289,891.843,532.912z"/>
	<path style="fill:#CA8080;" d="M855.662,610.848c-1.008,1.615-2.014,3.231-3.037,4.843c0.666-0.287,1.323-0.573,2.015-0.862
		L855.662,610.848z"/>
	<path style="fill:#CA8080;" d="M1301.118,721.222l-0.083,0.036c1.91,7.044,3.627,13.806,5.068,20.087l11.792-27.262
		L1301.118,721.222z"/>
	<path style="fill:#CA8080;" d="M1313.671,667.741c-0.119-22.497-5.715-43.337-8.502-52.331c-0.767-2.473-1.296-3.978-1.466-4.455
		c-52.018-26.936-90.655-109.331-92.024-112.221c-2.002-1.677-4.046-3.262-6.107-4.82c-38.283-28.908-85.228-36.151-122.597-36.151
		c-23.834,0-43.744,2.945-55.01,5.07c-1.086,18.023-2.293,44.739-2.293,74.771c-0.005,56.57,4.292,124.841,21.637,168.363
		l-0.217,0.738l-0.767-0.032c-0.028-0.026-21.358-18.316-44.568-51.504c0.263,1.368,0.393,2.226,0.395,2.235l-0.339,0.645
		l-0.719-0.114c-0.003,0-1.213-1.194-3.501-3.138c-2.289-1.944-5.644-4.634-9.897-7.591c-8.335-5.8-20.136-12.627-34.115-16.987
		l0.959,18.047l-0.412,0.621l-0.713-0.215c-0.005-0.007-6.404-8.612-15.162-21.943c-1.841-0.27-3.681-0.525-5.557-0.676
		c-11.437-0.923-26.409-2.894-44.146-2.894c-6.572,0-13.532,0.28-20.822,0.976c-6.217,13.878-13.776,26.109-22.997,33.832
		l-0.733,0.049l-0.27-0.682l7.965-31.025c-2.202,0.393-4.419,0.81-6.67,1.291c-9.18,14.349-18.124,28.871-24.028,44.543
		c-6.856,18.199-11.514,37.198-14.118,56.471c0.42-1.44,0.865-2.878,1.375-4.313c7.147-20.122,20.926-36.217,36.151-50.811
		c10.131-9.712,20.821-19.111,30.37-29.369c51.812,22.616,108.102,67.676,126.183,32.887c9.634,8.697,19.866,16.714,30.65,23.932
		c9.308,6.231,18.972,11.932,28.994,16.938c-1.206-5.812-2.234-11.661-3.296-17.503c-11.678-64.187-14.775-129.936-8.938-194.915
		c0.709-7.891,1.73-16.239,6.631-22.463c6.48-8.224,17.686-10.789,27.489-11.564c2.01-0.158,19.413-2.526,20.543-1.12
		c0.256,0.316,73.26,90.991,146.067,137.965c0.713,0.231,1.449,0.451,2.152,0.685c32.234,10.743,53.289,25.491,53.323,25.513
		l0.195,0.802l-0.77,0.294c-11.457-4.26-22.426-7.115-32.866-9.037c5.425,15.596,19.318,56.309,29.074,91.674
		c10.121-14.499,13.47-32.534,13.47-49.745L1313.671,667.741z"/>
	<path style="fill:#CA8080;" d="M1306.88,744.782c2.518,11.514,3.966,21.093,3.59,26.953c-0.559,8.743,1.727-6.799,5.215-32.939
		c-3.856,2.911-6.913,4.869-8.626,5.882C1306.983,744.724,1306.951,744.741,1306.88,744.782z"/>
	<path style="fill:#CA8080;" d="M954.22,943.899c4.619,3.661,39.488,28.502,100.631,25.954
		c60.424-2.519,107.815-26.592,110.75-28.275c2.936-1.683,3.296-9.34,3.296-9.34s-4.424,1.796-8.295,2.2
		c-3.871,0.405-69.023-6.538-99.065-6.538c-52.755,0-102.095,11.43-105.127,9.929c-3.033-1.501-7.528-1.998-7.528-1.998
		S951.243,941.536,954.22,943.899z M1054.553,932.461c33.62-0.533,93.603,9.045,93.603,9.045s-48.316,23.922-93.878,25.165
		c-45.562,1.24-84.877-22.326-84.877-22.326S1020.933,932.993,1054.553,932.461z"/>
	<path style="fill:#FFFFFF;" d="M1148.156,941.506c0,0-59.982-9.578-93.603-9.045c-33.62,0.531-85.152,11.883-85.152,11.883
		s39.315,23.566,84.877,22.326C1099.839,965.429,1148.156,941.506,1148.156,941.506z"/>
	<path style="fill:#CA8080;" d="M1085.248,987.663c-29.147-10.212-52.227,3.396-52.227,3.396
		C1046.733,1016.542,1103.079,993.909,1085.248,987.663z"/>
	<path style="fill:#CA8080;" d="M1000.473,870.849l8.957,2.653l51.23,15.181l52.635-15.598l7.552-2.237
		C1062.251,844.737,1000.473,870.849,1000.473,870.849z M1017.788,871.551c0,0,15.922-11.769,33.118,9.41L1017.788,871.551z
		 M1069.908,880.961c17.196-21.179,33.118-9.41,33.118-9.41L1069.908,880.961z"/>
	<path style="fill:#4C0D18;" d="M1017.788,871.551l33.118,9.41C1033.71,859.782,1017.788,871.551,1017.788,871.551z"/>
	<path style="fill:#4C0D18;" d="M1069.908,880.961l33.118-9.41C1103.026,871.551,1087.103,859.782,1069.908,880.961z"/>
	<path style="fill:#FFFFFF;" d="M1222.858,700.45c4.536,5.879,7.186,13.219,7.186,21.177c0,14.453-8.821,26.842-21.371,32.158
		c17.588-3.026,37.571-10.173,55.747-25.571l-0.083,0.178c4.214-4.29,9.366-17.666,11.722-24.219
		C1265.666,702.425,1246.034,699.87,1222.858,700.45z"/>
	<path style="fill:#FFFFFF;" d="M1187.196,755.739c-15.583-3.542-27.257-17.467-27.257-34.112c0-3.944,0.711-7.696,1.917-11.225
		l-0.031,0.009c-11.713,3.922-15.623,5.552-38.687,28.541l-0.005-0.003c-1.568,1.888-2.49,3.038-2.49,3.038
		s17.174,7.8,41.116,11.868c-1.186-0.375-1.819-0.616-1.819-0.616S1170.95,755.929,1187.196,755.739z"/>
	<path style="fill:#7DA165;" d="M1187.196,755.739c6.451-0.076,13.732-0.621,21.476-1.954c12.551-5.316,21.371-17.705,21.371-32.158
		c0-7.958-2.65-15.298-7.186-21.177c-19.013,0.473-40.39,3.053-61.001,9.952c-1.206,3.53-1.917,7.281-1.917,11.225
		C1159.939,738.272,1171.613,752.196,1187.196,755.739z M1194.999,706.199c1.988,0,3.876,0.409,5.62,1.094
		c1.72-2.531,4.621-4.195,7.912-4.195c5.281,0,9.562,4.28,9.562,9.561c0,4.655-3.328,8.521-7.732,9.376
		c-0.231,8.307-6.999,14.977-15.362,14.977c-8.509,0-15.406-6.897-15.406-15.406
		C1179.593,713.098,1186.489,706.199,1194.999,706.199z"/>
	<path style="fill:#4C0D18;" d="M1194.999,737.013c8.363,0,15.13-6.67,15.362-14.977c-0.592,0.115-1.203,0.185-1.829,0.185
		c-5.281,0-9.561-4.28-9.561-9.562c0-1.99,0.609-3.837,1.649-5.367c-1.744-0.685-3.633-1.094-5.62-1.094
		c-8.509,0-15.406,6.899-15.406,15.408C1179.593,730.116,1186.489,737.013,1194.999,737.013z"/>
	<path style="fill:#FFFFFF;" d="M1208.531,722.221c0.626,0,1.238-0.07,1.829-0.185c4.405-0.855,7.732-4.721,7.732-9.376
		c0-5.281-4.28-9.561-9.562-9.561c-3.291,0-6.192,1.664-7.912,4.195c-1.04,1.53-1.649,3.377-1.649,5.367
		C1198.97,717.941,1203.25,722.221,1208.531,722.221z"/>
	<path style="fill:#4C0D18;" d="M1119.199,737.013l3.934,1.936l0.005,0.003c23.064-22.989,26.974-24.618,38.687-28.541l0.031-0.009
		c20.612-6.899,41.988-9.479,61.001-9.952c23.177-0.58,42.809,1.976,53.201,3.722c5.074,0.853,7.971,1.513,7.971,1.513
		c-0.719-9.004-7.696-16.141-16.648-17.333c-44.748-5.956-95.89,7.133-110.731,14.746c-2.351,1.206-4.551,2.497-6.675,3.82
		C1129.34,719.761,1119.199,737.013,1119.199,737.013z"/>
	<path style="fill:#4C0D18;" d="M1208.672,753.785c-7.744,1.333-15.026,1.878-21.476,1.954c-16.246,0.19-27.257-2.5-27.257-2.5
		s0.633,0.241,1.819,0.616c4.702,1.484,18.492,5.16,39.856,5.116c30.299-0.063,46.952-11.476,55.374-20.382
		c4.943-5.228,7.038-9.518,7.347-10.198l0.083-0.178C1246.244,743.612,1226.26,750.759,1208.672,753.785z"/>
	<path style="fill:#CA8080;" d="M1233.013,623.161c-17.671,0.02-32.621,1.973-44.031,2.894
		c-36.273,2.914-63.963,27.703-67.873,31.384l0.003-0.003l-0.536,0.509l-0.245,0.035c-1.906,5.113-3.329,10.61-3.91,16.496
		c-3.398,34.392,97.233-19.532,155.827-10.19c0,0-12.203-25.221-38.228-41.111c-0.248-0.001-0.511-0.015-0.758-0.015H1233.013z"/>
	<path style="fill:#FFFFFF;" d="M913.006,753.785c-12.55-5.316-21.369-17.705-21.369-32.158c0-7.958,2.651-15.298,7.187-21.177
		c-23.177-0.58-42.809,1.976-53.201,3.722c2.356,6.553,7.508,19.93,11.722,24.219l-0.083-0.178
		C875.435,743.612,895.418,750.759,913.006,753.785z"/>
	<path style="fill:#FFFFFF;" d="M959.857,710.411l-0.032-0.009c1.206,3.53,1.917,7.281,1.917,11.225
		c0,16.645-11.673,30.57-27.26,34.112c16.249,0.19,27.26-2.5,27.26-2.5s-0.633,0.241-1.82,0.616
		c23.941-4.068,41.116-11.868,41.116-11.868s-0.921-1.149-2.49-3.038l-0.005,0.003C975.479,715.962,971.569,714.333,959.857,710.411
		z"/>
	<path style="fill:#7DA165;" d="M961.742,721.627c0-3.944-0.711-7.696-1.917-11.225c-20.614-6.899-41.988-9.479-61.001-9.952
		c-4.536,5.879-7.187,13.219-7.187,21.177c0,14.453,8.819,26.842,21.369,32.158c7.742,1.333,15.026,1.878,21.476,1.954
		C950.069,752.196,961.742,738.272,961.742,721.627z M941.499,725.6c-1.766,6.56-7.696,11.413-14.816,11.413
		c-8.509,0-15.408-6.897-15.408-15.406c0-8.509,6.899-15.408,15.408-15.408c4.041,0,7.691,1.591,10.438,4.139
		c1.754-2.051,4.329-3.379,7.238-3.379c5.279,0,9.559,4.283,9.559,9.562c0,5.281-4.28,9.562-9.559,9.562
		C943.355,726.082,942.407,725.885,941.499,725.6z"/>
	<path style="fill:#4C0D18;" d="M934.797,716.52c0-2.37,0.897-4.512,2.324-6.182c-2.747-2.548-6.397-4.139-10.438-4.139
		c-8.509,0-15.408,6.899-15.408,15.408c0,8.509,6.899,15.406,15.408,15.406c7.12,0,13.05-4.853,14.816-11.413
		C937.625,724.379,934.797,720.798,934.797,716.52z"/>
	<path style="fill:#FFFFFF;" d="M953.917,716.52c0-5.279-4.28-9.562-9.559-9.562c-2.909,0-5.484,1.328-7.238,3.379
		c-1.427,1.671-2.324,3.812-2.324,6.182c0,4.278,2.828,7.859,6.702,9.079c0.909,0.285,1.856,0.482,2.86,0.482
		C949.637,726.082,953.917,721.802,953.917,716.52z"/>
	<path style="fill:#4C0D18;" d="M898.824,700.45c19.013,0.473,40.387,3.053,61.001,9.952l0.032,0.009
		c11.712,3.922,15.622,5.552,38.687,28.541l0.005-0.003l3.934-1.936c0,0-10.378-17.664-31.51-30.551
		c-1.902-1.162-3.861-2.297-5.942-3.364c-14.84-7.613-65.983-20.702-110.73-14.746c-8.953,1.191-15.93,8.329-16.648,17.333
		c0,0,2.897-0.661,7.971-1.513C856.015,702.425,875.647,699.87,898.824,700.45z"/>
	<path style="fill:#4C0D18;" d="M920.066,758.971c21.364,0.044,35.155-3.632,39.856-5.116c1.186-0.375,1.82-0.616,1.82-0.616
		s-11.011,2.69-27.26,2.5c-6.45-0.076-13.734-0.621-21.476-1.954c-17.588-3.026-37.571-10.173-55.744-25.571l0.083,0.178
		c0.28,0.619,2.049,4.232,6.098,8.836C871.409,746.282,888.186,758.905,920.066,758.971z"/>
	<path style="fill:#2C1A17;" d="M396.552,1544.183l-0.039-0.447c-17.404,7.394-70.497,33.163-103.612,84.968
		c-17.487,27.398-48.141,122.377-63.42,226.869c-1.191,2.162-44.587,80.253-45.773,134.251l0.178,0.449l0.446,0.188h252.07
		l-0.621-0.57L396.552,1544.183z"/>
	<path style="fill:#1C110F;" d="M1891.841,1855.573c-15.282-104.492-45.936-199.471-63.42-226.869
		c-33.117-51.806-86.208-77.574-103.615-84.968l-0.039,0.446l-39.225,445.707l-0.621,0.57h252.07l0.446-0.188l0.178-0.449
		C1936.427,1935.827,1893.032,1857.735,1891.841,1855.573z"/>
	<path style="fill:#1C110F;" d="M961.162,1166.128c-0.187-0.031-0.371-0.072-0.558-0.104c-31.351-5.296-62.322-12.799-92.659-22.568
		l1.863,75.999l-0.278,0.534l-49.511,33.209c6.395,9.787,105.041,161.118,149.139,250.913c14.95,0.699,29.948,1.025,44.949,1.025
		c47.734,0,95.464-3.265,141.521-8.062c45.613-90.456,139.447-234.401,145.641-243.876l-49.513-33.209l-0.275-0.534l1.571-64.066
		l0.012-0.487c-57.379,13.732-116.304,20.867-175.096,20.867C1038.809,1175.77,999.708,1172.608,961.162,1166.128z"/>
	<path style="fill:#263A21;" d="M1724.766,1544.183l0.039-0.446l0.633-7.195l-0.273-0.573l-102.491-68.738
		c13.509-28.222,19.044-54.878,19.044-79.563c-0.047-107.035-103.441-176.795-107.907-179.781
		c-20.627-102.493-89.411-153.951-153.133-179.698c-63.653-25.728-122.292-25.909-123.222-25.912h-0.044l-0.624,0.609
		l-3.725,152.017l-0.012,0.487l-1.571,64.066l0.275,0.534l49.513,33.209c-6.193,9.476-100.028,153.42-145.641,243.876
		c-46.058,4.797-93.788,8.062-141.521,8.062c-15.002,0-30-0.326-44.949-1.025c-44.099-89.795-142.745-241.126-149.139-250.913
		l49.511-33.209l0.278-0.534l-1.863-75.999l-3.025-123.419l-0.42-17.151l-0.624-0.609c0,0-0.014,0-0.015,0
		c-0.175,0-14.219,0.024-35.959,3.013l0.675,0.414l-0.273,0.743c-44.494,26.088-77.654,71.493-93.864,116.897
		c-13.33,37.026-19.279,72.716-19.279,107.201c-0.004,21.602,2.329,42.734,6.651,63.424
		c30.251,144.834,157.917,268.033,262.91,379.099l0.115,0.689l-0.599,0.363c-129.763-6.463-235.034-42.825-314.03-83.246
		c64.226,137.044,134.811,270.566,216.084,398.629l0.019,0.633l-0.546,0.324h799.153l0.621-0.57L1724.766,1544.183z"/>
	<path style="fill:#8F6B4B;" d="M733.888,753.992c0.003-0.335,0.026-0.642,0.031-0.973c0.555-37.848,14.801-57.232,27.445-58.963
		l0.965-0.063c0.326,0,0.67,0.034,1.015,0.067c-0.049-0.12-0.104-0.239-0.153-0.359c-12.626-30.943-19.152-62.811-19.254-97.077
		l-0.002-0.884c0-3.651,0.067-7.303,0.202-10.953c0.932-25.203,5.106-50.301,12.542-74.402
		c-55.695,9.662-105.19,46.101-135.919,94.132l-0.726,0.256l-0.422-0.643c-0.502,6.224-0.646,11.523-0.646,15.554
		c0,5.415,0.258,8.546,0.261,8.56l0.465,0.553l0.675-0.258c22.862-34.326,49.084-52.275,69.586-61.654
		c10.253-4.69,19.074-7.235,25.325-8.609c3.126-0.685,5.608-1.079,7.309-1.299c0.594-0.077,1.052-0.128,1.446-0.169l-23.208,41.782
		l-0.017,0.031c-10.063,20.838-13.349,40.979-13.349,58.39c0.002,32.777,11.632,55.876,11.656,55.93l0.531,0.343l0.558-0.297
		l10.949-17.782c3.839,36.192,21.581,59.113,21.619,59.166l0.503,0.151l0.188,0.056L733.888,753.992z"/>
	<path style="fill:#D9B17A;" d="M620.761,604.515c30.728-48.031,80.224-84.47,135.919-94.132
		c-7.436,24.101-11.609,49.199-12.542,74.402c-0.135,3.65-0.202,7.302-0.202,10.953l0.002,0.884
		c0.102,34.266,6.628,66.134,19.254,97.077c0.049,0.12,0.104,0.239,0.153,0.359c2.706,6.615,5.59,13.204,8.87,19.755
		c5.109,10.207,10.685,20.231,16.848,29.851c2.716,4.234,6.945,9.807,10.105,15.445c0.323,0.576,0.601,1.15,0.898,1.725
		c1.828,3.538,3.155,7.036,3.245,10.121l0.198,0.436l0.446,0.168l0.434-0.198l0.17-0.445c-0.041-1.294-0.048-2.59-0.048-3.891
		c0-0.794,0.003-1.591,0.003-2.39v-0.777c0-0.032-0.001-0.063-0.001-0.096c-0.006-1.419-0.033-2.83-0.033-4.233
		c0-0.531,0.003-1.062,0.015-1.591c0.158-8.007,0.701-16.002,1.605-23.959c0.205-1.796,0.537-3.574,0.779-5.365
		c2.604-19.273,7.262-38.272,14.118-56.471c5.904-15.672,14.848-30.194,24.028-44.543c-0.084,0.018-0.165,0.03-0.249,0.049
		l-0.643-0.254l-0.015-0.692c2.136-3.335,4.273-6.665,6.394-9.993l0.278-0.236c0.603-0.26,1.23-0.524,1.837-0.786
		c1.024-1.612,2.03-3.227,3.037-4.843l-1.022,3.981c0.099-0.041,0.189-0.082,0.289-0.124l0.648,0.107l0.195,0.626l-2.626,10.229
		l-0.497,0.458c-0.315,0.055-0.641,0.129-0.956,0.185l-7.965,31.025l0.27,0.682l0.733-0.049
		c9.221-7.724,16.781-19.954,22.997-33.832c-0.119,0.011-0.23,0.013-0.35,0.024l-0.567-0.255l-0.063-0.619
		c2.129-4.784,4.102-9.759,5.917-14.825l0.397-0.385c0.376-0.12,0.79-0.221,1.169-0.34c10.962-31.086,16.206-64.769,17.611-74.825
		c5.549,21.378,17.274,45.203,29.074,65.703c0.327-0.025,0.638-0.078,0.966-0.102l0.582,0.309
		c5.832,10.088,11.632,19.303,16.672,26.984l0.005,0.677l-0.616,0.28c-0.09-0.013-0.182-0.02-0.272-0.033
		c8.758,13.331,15.157,21.936,15.162,21.943l0.713,0.215l0.412-0.621l-0.959-18.047c-0.288-0.09-0.563-0.195-0.853-0.282
		l-0.444-0.562l-1.476-27.759l0.217-0.507l0.533-0.139c0.156,0.033,0.316,0.082,0.472,0.115l-3.875-72.802
		c5.454,30.76,15.349,58.115,26.877,81.623c0.591,0.375,1.237,0.682,1.806,1.081l0.2,0.232
		c7.625,15.308,15.883,28.938,23.995,40.755l0.092,0.214c0.276,1.198,0.471,2.159,0.629,2.981
		c23.21,33.188,44.539,51.478,44.568,51.504l0.767,0.032l0.217-0.738c-17.345-43.522-21.642-111.793-21.637-168.363
		c0-30.032,1.207-56.748,2.293-74.771c-0.069,0.013-0.156,0.027-0.225,0.04l-0.499-0.122l-0.241-0.456
		c-0.054-0.928-0.051-1.827-0.078-2.711v-0.058c0.626-9.893,1.176-16.657,1.398-19.269l0.007-0.058
		c1.353-7.493,3.605-14.68,6.641-21.411c13.156-29.169,41.027-49.794,74.148-49.797c9.347,0,19.106,1.644,29.06,5.198l0.029,0.013
		c46.417,19.369,59.993,71.303,68.356,119.108l-0.29,0.638l-0.699-0.034c2.061,1.558,4.104,3.143,6.107,4.82
		c1.369,2.89,40.007,85.285,92.024,112.221c0.171,0.476,0.699,1.982,1.466,4.455c2.787,8.994,8.383,29.834,8.502,52.331l0.083-0.314
		c2.794-4.826,5.188-9.8,7.207-14.903c6.058-15.305,8.745-31.756,8.745-48.756c0.019-69.328-44.787-147.741-87.427-193.644
		l-0.017-0.828l0.821-0.115c7.303,4.882,17.218,6.146,26.631,8.648c8.681,2.308,16.969,5.823,22.206,14.391
		c-0.885-43.479-25.269-77.546-54.613-106.892l-0.134-0.68l0.575-0.385c10.236,0,19.878,1.771,28.95,4.853
		c17.298,5.873,32.463,16.598,45.515,29.476c5.498-22.339,8.273-44.279,8.273-65.708c0-26.804-4.292-52.814-12.855-77.827
		l0.309-0.76l0.794,0.207c-34.158-50-90.285-83.53-90.322-83.556l-0.37-0.085c-0.018,0.003-83.667,6.796-167.284,27.189
		c-38.49,9.391-79.693,11.922-112.899,11.922c-19.369,0-36.017-0.862-47.82-1.722c-11.803-0.86-18.733-1.72-18.753-1.72
		l-0.606,0.292l0.014,0.677c0.003,0.005,8.058,11.898,17.374,24.227c4.658,6.165,9.63,12.439,14.078,17.396
		c2.398,2.662,4.594,4.893,6.563,6.585c-9.727-3.261-33.245-9.764-66.137-9.764c-11.961,0-25.165,0.86-39.391,3.05
		c-16.809,2.599-35.598,15.954-54.443,34.458C692.24,298.972,635.353,401.2,635.333,401.222l0.008,0.621l0.538,0.307h74.438
		c-16.199,22.344-46.483,41.508-72.903,55.082c-13.406,6.889-25.805,12.348-34.852,16.085c-9.048,3.737-14.721,5.742-14.734,5.749
		l-0.417,0.595l0.429,0.585c11.993,3.958,25.108,5.423,37.978,5.423c29.027-0.004,56.739-7.426,67.545-10.693
		c-57.742,34.941-71.05,95.601-73.75,129.153l0.422,0.643L620.761,604.515z"/>
	<path style="fill:#8F6B4B;" d="M1307.63,215.057c8.563,25.013,12.855,51.023,12.855,77.827c0,21.428-2.774,43.369-8.273,65.708
		c-13.053-12.878-28.217-23.604-45.515-29.476c-9.072-3.082-18.714-4.853-28.95-4.853l-0.575,0.385l0.134,0.68
		c29.344,29.346,53.728,63.414,54.613,106.892c-5.237-8.568-13.525-12.083-22.206-14.391c-9.413-2.502-19.328-3.766-26.631-8.648
		l-0.821,0.115l0.017,0.828c42.64,45.903,87.447,124.316,87.427,193.644c0,17.001-2.687,33.451-8.745,48.756
		c-2.019,5.102-4.413,10.077-7.207,14.903l-0.083,0.314l0.003,0.723c0,17.211-3.35,35.246-13.47,49.745
		c-0.102,0.146-0.18,0.303-0.283,0.448c-0.629,0.884-1.164,1.771-1.793,2.562l-0.008,0.765l0.741,0.197l2.175-0.924l0.083-0.036
		l16.777-7.14l-11.792,27.262l-0.33,0.762l-1.155,2.672l0.151,0.706l0.716,0.093c0.005-0.005,0.548-0.299,1.394-0.795
		c0.071-0.042,0.103-0.058,0.18-0.104c1.712-1.013,4.77-2.971,8.626-5.882c0.171-0.129,0.319-0.232,0.493-0.365
		c0.515-0.393,1.052-0.817,1.591-1.243c0.17-0.134,0.329-0.254,0.501-0.392c9.97-7.965,23.85-21.741,34.794-42.462
		c0.884-0.21,1.745-0.354,2.551-0.354l1.076,0.073c7.632,1.074,15.859,8.553,21.298,22.69l0.383,0.368l0.393-0.046l0.133-0.015
		c58.789-36.3,69.016-96.344,70.239-105.294l19.501,16.904l0.619,0.117l0.404-0.482c0.726-4.287,1.057-8.48,1.057-12.565
		c-0.018-31.334-19.459-56.135-30.748-67.921c9.706,5.809,20.712,7.607,30.408,7.607c14.453-0.002,26.002-3.829,26.039-3.839
		l0.429-0.572l-0.393-0.6c-29.51-11.815-42.112-33.656-50.168-57.524c-8.051-23.859-11.435-49.679-22.555-69.16
		c-17.235-30.041-61.554-33.389-81.206-33.415c-2.969,0-5.377,0.079-7.05,0.158l144.078-84.089l0.307-0.475l-0.204-0.526
		c-0.051-0.034-27.026-24.421-62.005-24.441c-8.075,0-16.575,1.306-25.247,4.518c-29.975,11.157-52.468,51.938-64.73,79.423
		c4.408-15.744,8.742-37.076,8.742-60.514c0-18.01-2.56-37.206-9.62-55.907c-4.514-11.966-10.804-23.323-18.061-33.949l-0.794-0.207
		L1307.63,215.057z"/>
	<path style="fill:#8F6B4B;" d="M1304.765,635.278l-0.195-0.802c-0.034-0.022-21.089-14.77-53.323-25.513
		c-0.703-0.234-1.439-0.454-2.152-0.685c-15.298-4.936-32.932-8.933-52.062-10.004h-0.019c-0.005,0-0.358-0.008-1.008-0.008
		c-6.02,0.022-37.411,0.636-54.185,15.018c-18.484,15.939-22.267,44.068-22.292,44.122l0.334,0.641l0.468-0.067l0.245-0.035
		l0.536-0.509l-0.003,0.003c3.91-3.681,31.6-28.47,67.873-31.384c11.411-0.921,26.36-2.874,44.031-2.894h0.247
		c0.246,0,0.51,0.014,0.758,0.015c11.236,0.035,23.534,0.877,36.762,3.289c0.115,0.021,0.235,0.05,0.35,0.071
		c10.44,1.922,21.409,4.777,32.866,9.037L1304.765,635.278z"/>
	<path style="fill:#8F6B4B;" d="M932.697,626.055c1.876,0.151,3.716,0.406,5.557,0.676c0.09,0.013,0.182,0.02,0.272,0.033
		l0.616-0.28l-0.005-0.677c-5.04-7.681-10.84-16.896-16.672-26.984l-0.582-0.309c-0.328,0.023-0.639,0.077-0.966,0.102
		c-16.993,1.295-32.797,4.761-46.685,9.122c-0.379,0.119-0.793,0.22-1.169,0.34l-0.397,0.385
		c-1.815,5.067-3.788,10.041-5.917,14.825l0.063,0.619l0.567,0.255c0.12-0.011,0.23-0.013,0.35-0.024
		c7.29-0.696,14.25-0.976,20.822-0.976C906.288,623.161,921.26,625.132,932.697,626.055z"/>
	<path style="fill:#8F6B4B;" d="M997.593,654.798c2.287,1.944,3.498,3.138,3.501,3.138l0.719,0.114l0.339-0.645
		c-0.001-0.009-0.132-0.867-0.395-2.235c-0.158-0.822-0.352-1.783-0.629-2.981l-0.092-0.214
		c-8.112-11.817-16.371-25.447-23.995-40.755l-0.2-0.232c-0.569-0.4-1.215-0.706-1.806-1.081c-6.879-4.365-15.11-7.133-23.003-8.821
		c-0.157-0.034-0.317-0.083-0.472-0.115l-0.533,0.139l-0.217,0.507l1.476,27.759l0.444,0.562c0.29,0.088,0.564,0.193,0.853,0.282
		c13.978,4.36,25.779,11.187,34.115,16.987C991.949,650.165,995.304,652.854,997.593,654.798z"/>
	<path style="fill:#8F6B4B;" d="M852.648,626.126l0.497-0.458l2.626-10.229l-0.195-0.626l-0.648-0.107
		c-0.1,0.041-0.19,0.082-0.289,0.124c-0.692,0.289-1.349,0.575-2.015,0.862c-0.607,0.262-1.234,0.525-1.837,0.786l-0.278,0.236
		c-2.122,3.328-4.258,6.657-6.394,9.993l0.015,0.692l0.643,0.254c0.084-0.018,0.165-0.031,0.249-0.049
		c2.251-0.481,4.468-0.898,6.67-1.291C852.008,626.255,852.334,626.181,852.648,626.126z"/>
	<path style="fill:#4B5D30;" d="M886.293,1989.503c-81.273-128.064-151.858-261.585-216.084-398.629
		c78.996,40.421,184.267,76.783,314.03,83.246l0.599-0.363l-0.115-0.689c-104.993-111.066-232.658-234.265-262.91-379.099
		c-4.322-20.691-6.655-41.823-6.651-63.424c0-34.485,5.949-70.175,19.279-107.201c16.21-45.403,49.37-90.809,93.864-116.897
		l0.273-0.743l-0.675-0.414c-33.741,4.648-86.039,16.458-133.832,46.563c-47.739,30.063-90.973,78.43-106.589,156.032
		c-4.41,2.948-107.862,72.717-107.91,179.783c0,24.69,5.537,51.348,19.051,79.577l-102.471,68.725l-0.273,0.573l0.633,7.195
		l0.039,0.447l39.228,445.707l0.621,0.57h449.366l0.546-0.324L886.293,1989.503z"/>
	<path style="fill:#8F6B4B;" d="M1205.572,493.914l0.699,0.034l0.29-0.638c-8.363-47.805-21.939-99.739-68.356-119.108l-0.029-0.013
		c-9.954-3.554-19.713-5.198-29.06-5.198c-33.122,0.004-60.992,20.628-74.148,49.797c-3.036,6.731-5.288,13.917-6.641,21.411
		l-0.007,0.058c-0.222,2.612-0.772,9.376-1.398,19.269v0.058c0.026,0.884,0.024,1.784,0.078,2.711l0.241,0.456l0.499,0.122
		c0.069-0.013,0.156-0.027,0.225-0.04c11.266-2.126,31.176-5.07,55.01-5.07C1120.343,457.763,1167.289,465.006,1205.572,493.914z"/>
</g>
</svg>
